<?xml version="1.0" encoding="UTF-8"?>
<svg id="Layer_2" data-name="Layer 2" xmlns="http://www.w3.org/2000/svg" viewBox="0 0 1794.66 433.52">
  <defs>
    <style>
      .cls-1 {
        fill: #fff;
      }
    </style>
  </defs>
  <g id="Layer_1-2" data-name="Layer 1">
    <path d="M1230.35,262.77c3.15.48,3-3.78,3.65-6.03,16.5-57.33,43.86-104.13,106.58-117.57,31.28-6.7,75.81-.43,99.95,22.2,2.29,2.14,16.95,23.33,20.36,19.48l-2.15-161.66,22.37-.25,3.53-8.39,58.16,4.33c2.16,120.97-2.89,242.34-.12,363.31.21,9.18,4.39,20.7,2.21,29.67-.19.8-7.8,5.33-4.49,14.17l-75.19,2.39v-59.27c0-1.98.8-9.28-3.21-7.53-37.36,50.44-67.11,84.06-135.61,66.64-62.37-15.86-88.27-55.97-96.06-117.33-.5-3.92.85-3.52-4.29-3.22v106.69l-8.3,3.52-.32,10.49h-66.8l-1.1-23.73c-14.36,11.92-25.13,20.74-44.03,24.93-118.05,26.17-147.97-123.87-38.8-163.83,17.7-6.48,31.53-7.16,50.23-10.11,6.49-1.02,38.3-4.64,40.36-7.54,8.55-12.03-5.17-37.3-17.42-42.82-24.49-11.03-51.26,3.92-57.44,29.22l-57.45,3.79-23.56-24.85c-3.03-1.27-16.2-1.23-20.05-.76-1.04.13-16.29,8.76-18.05,10-23.47,16.39-13.43,30.9-12.98,53.65.94,47.09.41,94.23,2.09,141.28h-8.65s1.63,9.78,1.63,9.78l-2.7,3.14h-64.64l-5.4-288.84,79.75,2.16c.27,5.35-.4,10.86-.01,16.22.17,2.33-1.18,7.2,3.2,5.33,2.99-1.27,11.01-9.92,15.49-12.53,21.26-12.41,39.01-13.73,63.17-15.47.32,13.66.65,28.59,2.05,42.15.34,3.27.24,5.34,3.35,7.39,34.49-42.68,71.76-56.78,126.13-44.22,26.49,6.12,45.56,19.3,56.36,44.93,1.54,3.64,8.2,24.04,8.2,26.28v52.81ZM1465.22,23.51v169.2c0,3.07,15.92,26.4,13.1,34.53l-.36,3.01-10.68,3.76,2.55,184.72,1.71,2.6,64.8-1.22c-.14-3.05.53-6.49-.28-9.43-1.46-5.36-4.65-1.34-5.12-1.34h-44.17l-4.3-385.83h-17.25ZM879.13,422.27h62.49l-2.15-10.78h-39.86l-5.38-267.29h-17.26s2.17,278.06,2.17,278.06ZM1346.7,144.24c-54.3,4.06-94.45,52.88-106.72,103.36-22.36,92,32.67,183.13,133.64,174.63,15.91-1.34,34.15-6.24,44.2-19.34-14.61,5.77-27.81,12.37-44.08,13-128.66,5.04-160.07-184.64-66.61-251.9l39.57-19.75ZM1178.33,243.07c17-58.56-46.02-74.12-83.71-41.72,6.58.96,12.53-4.89,19.25-6.59,34.89-8.86,57.86,11.76,47.57,47.49l4.38,2.43,12.51-1.61ZM1463.07,230.44h-48.48c-7.85-13.91-11.89-31.61-30.36-34.29-21.88-3.18-39.99,4.9-54.74,20.29,5.61,3.86,12.55-6.51,14.57-7.42,7.9-3.55,22.67-5.51,31.25-3.92,5.19.96,16.46,10.34,19.98,14.48,5.11,6,7.92,13.38,12.83,19.49h54.95v-8.62ZM1038.57,202.43c-9.35,3.59-13.73-3.28-22.56-4.37-15.12-1.88-39.69-.79-50.69,10.81,12.11-4.72,40.38-9,50.52.14,4.7,4.24,9.16,19.89,13.42,21.23l30.86-1.97c-4.75-8.39-16.26,1.14-23.37-4.61l1.82-21.22ZM1463.07,241.21l-58.85,1.75c-34.71-55.48-98.82-25.62-98.62,33.81.25,74.23,76.05,119.03,114.24,38.84l43.23,3.2v-77.6ZM1133.39,407.2c-42.4,12.5-90.01,11.58-107.25-36.07-8.93-24.67-5.74-50.25,5.15-73.63,3.18-6.83,11.29-14.04,10.54-19.64-42.16,26.88-51.25,85.69-18.27,123.88,25.91,30.01,80,27.61,109.84,5.46ZM1152.78,346.83c0,1.44-.04,2.88.02,4.31,18.51-15.47,28.86-37.95,25.83-62.51l-65.27,8.7c-7.49,8.75-24.16,3.02-31.67,16.1l27.19-7.29,54.68-4.58c.27,15.34-3.7,32.67-10.77,45.27-.06-12.98,8.91-27.14,6.45-40.95-26.33,7.32-93.09-5.97-85.66,39.37,3.14,19.18,12.59,24.03,30.7,23.11,19.54-1,38.45-3.59,48.51-21.52ZM1154.94,420.12h54.95c2.3,0,4.11-6.21,3.23-8.61l-42.87-4.53,2.98-29.99c-16.59,9.91-20.88,24.25-18.29,43.13Z"/>
    <path d="M207,8.3c.64.47,9.31-3.86,13.7-4.33,31.27-3.33,66.97,2.72,98.43,3.56,13.41,132.78,33.45,264.7,53.76,396.54-2.64,8.17-6.39,11.38-2.29,20.34-29.78-1.21-58.8,3.06-88.35.02l-18.48-112.22-109.37.47-51.12,110.67c-10.11,9.41-85.85-1.69-103.28,1.06L189.86,3.28c2.58-5.62,10.47-2.92,14.77-.07,1.89,1.25,1.96,4.78,2.38,5.08ZM364.14,411.49h-60.33l-17.09-117.62-139.91-.64-53.08,116.1h-60.33l-2.38-4.46c14.84-36.89,31.59-72.99,48.32-109.09,5.17-11.15,12.75-22.25,18.01-33.72,37.81-82.48,72.13-166.62,111.58-248.37,1.48-5.17-10.62-3.46-13.66-5.45L6.47,420.1l92.62,1.07,50.63-111.02c4.85-4.32,39.98-1.67,49.68-2.04,5.1-.19,9.83-2.28,14.91-2.33,19.21-.21,38.11.75,57.18,2.25l15.22,111.96c25.63,5.96,51.54-1.69,77.45.11v-8.61ZM262.86,55.86c-5.04-1.09-3.46.65-4.82,2.77-4.5,7.02-10.64,20.09-10.32,28.37l15.27,147.62,16.22-1.89-16.35-176.87ZM185.27,232.58l58.19-137.94c-3.99,1.22-5.63,5.36-7.59,8.55-10.99,17.93-51.62,106-54.79,124.12-.77,4.41-.93,6.15,4.19,5.27ZM189.61,232.59h66.8l-13.98-125.03-52.81,125.03Z"/>
    <path d="M532.22,237.98c-.67-3.07-10.91-16.3-14.28-18.05-17.71-9.2-44.6,4.38-53.71,21.17l1.32,162.97c-1.12,8.04-8.11,8.89-5.33,18.26-2.42,3.66-67.18,3-69.97-.29l-2.4-282.15,79.75-2.16c.3,6.06-.45,12.3-.01,18.37.23,3.21-1.67,6.23,3.2,5.33,28.76-31.6,80.86-35.86,116.03-12.55,13.12,8.7,15.46,18.69,21.91,31.93,14.09-19.88,27.35-41.51,54.05-45.04,52.89-6.98,89.74,32.4,93.52,82.83,3.38,45.18-3.38,97.55-2.23,144.49.4,16.21,4.26,33.67,2.24,50.54-2.33.82-4.7-2.15-5.37-2.15h-52.79c.44-27.65-.55-55.41-.09-83.07.56-33.6,7.51-73.36,1.26-106.7-4.96-26.49-28.83-29.1-51.17-22.98-9.3,2.55-22.17,8.4-24.32,18.78,18.68-10.67,39.86-23.8,53.22,2.77,13.8,27.44,6.17,66.13,5.92,95.19-.3,35.58.41,71.22.09,106.78h70.03c.96,0,5.5,5.21,2.15,6.48-21.48-3.29-53.28,1.31-73.24-2.17-8.62-1.5-3.27-7.57-3.14-13.91,1.06-49.73,6.78-113.33,1.78-161.49-5-48.24-48.02-48.23-68.58-10.94-3.03,22.04,4.67,164.79-2.72,172.96-1.22,1.35-6.75.12-8.07,3.92l2.09,9.44c-3.68,5.3-60.93-2.84-71.12.02v-188.6ZM394.31,146.38v273.74h60.33v-10.78h-43.09V146.36s-17.24.01-17.24.01ZM553.76,411.49c1.18-36.28,1.27-72.62,2.07-108.94.66-29.9,9.84-69.03-10.69-94.75s-64.57-6.95-77.56,18.29c8.47-3.08,13.97-10,23.58-11.96,20.45-4.16,40.7,1.42,44.87,24.34,5.95,32.69-1.39,87.78-1.74,122.27-.21,20.7.92,40.93,2.24,61.52h59.26l3.08-3.46-2-7.32h-43.09Z"/>
    <path d="M1624.67,305.88c17.79,57.78,81.57,82.22,111.11,17.51l52.64,4.05c2.4,2.34-12.61,32.39-15.5,37.28-22.15,37.49-47.36,53.04-88.47,64.16-1.81.49-1.54,3.74-3.1,4.11-2.99.7-15.59.71-18.56,0-1.58-.37-1.25-3.67-3.03-4.16-40.05-11-63.94-13.48-87.23-52.48-46.82-78.42-32.74-198.09,60.19-233.78,79.89-30.68,148.15,18.75,159.77,99.97,1.59,11.1,3.87,39.11.21,48.76-1.44,3.81-10.34,2.79-4.26,14.57h-163.76ZM1626.83,150.71c-133.44,57.54-81.4,303.28,73.3,270.53l19.34-9.72c-28.73,6.29-57.45,8.65-84.11-5.32-27.36-14.34-52.54-49.32-61.34-78.74-18.99-63.48-1.96-137.2,52.81-176.75ZM1736.73,243.38c-1.05-39.85-28.89-66.37-69.55-53.4-10.01,3.19-32.21,16.53-30.67,27.52,30.13-37.13,83.37-24.89,85.13,25.87l15.08.02ZM1717.33,243.37c.57-14.2-17.77-37.93-30.54-41.65-20.6-6.01-42.81,8.32-54.44,24.54-3.15,4.39-6.62,11.71-7.67,17.11h92.65ZM1780.89,292.94h-152.99c-.82,0-2.73-3.89-5.31,1.15l-.08,7.46c49.83-2.97,102.53,6.25,152.03,2.27,3.66-.29,7.24.5,9.55-3.38.81-2.6-.86-6.84-3.2-7.51Z"/>
    <path d="M853.27,412.57c-.38,1.24-4.48,3.23-5.31,5.33s1.48,5.55.95,6.34c-2.22,3.28-67.11,3.83-71.96.42-5.82-94.59,5.17-190.55-1.38-285.59,1.22-4.47,38.56-3.16,44.38-3.39,10.26-.4,24.52-6.61,33.31.99v275.9ZM780.01,145.3v273.74l3.23,3.23h61.41l-1.07-8.77c-.51-.61-7.67-2.01-8.63-2.01h-37.71V142.05s-13.67.35-13.67.35l-3.57,2.89Z"/>
    <path d="M855.43,17.05v76.52c-1.98,2.31-11.96,5.39-14.01,5.39h-66.8l-3.23-3.23V26.75c4.49-7.53,20.28-.57,23.85-2.18s3.74-7.52,4.16-7.52h56.02ZM797.25,87.1c-2.03-17.42,1.5-38.2,0-56.04l-3.14-2.71-18.41,1.63v57.12c0,.41,2.63,7.61,3.33,7.6l20.37-2.22c.81-2.42-2.04-4.45-2.15-5.37Z"/>
    <path class="cls-1" d="M1463.07,230.44v8.62h-54.95c-4.91-6.1-7.72-13.48-12.83-19.49-3.52-4.14-14.79-13.51-19.98-14.48-8.58-1.59-23.35.37-31.25,3.92-2.03.91-8.96,11.28-14.57,7.42,14.75-15.39,32.87-23.46,54.74-20.29,18.47,2.68,22.51,20.37,30.36,34.29h48.48Z"/>
    <path class="cls-1" d="M1780.89,292.94c2.34.67,4.01,4.91,3.2,7.51-2.31,3.88-5.89,3.08-9.55,3.38-49.5,3.98-102.19-5.24-152.03-2.27l.08-7.46c2.58-5.04,4.49-1.15,5.31-1.15h152.99Z"/>
  </g>
</svg>