<?xml version="1.0" encoding="UTF-8"?>
<svg id="Layer_2" data-name="Layer 2" xmlns="http://www.w3.org/2000/svg" viewBox="0 0 80.88 46.56">
  <defs>
    <style>
      .cls-1 {
        fill: #292929;
      }

      .cls-2 {
        fill: #393939;
      }

      .cls-3 {
        fill: #262325;
      }

      .cls-4 {
        fill: #434843;
      }

      .cls-5 {
        fill: #323833;
      }

      .cls-6 {
        fill: #2a2a2a;
      }

      .cls-7 {
        fill: none;
        stroke: #555743;
        stroke-miterlimit: 10;
        stroke-width: .4px;
      }
    </style>
  </defs>
  <g id="Layer_2-2" data-name="Layer 2">
    <path d="M35.41,1.35c1.99,2.02-1.65,4.46-2.7,1.97-.82-1.94,1.67-3.01,2.7-1.97Z"/>
    <path class="cls-1" d="M21.96,24.07c-.11-.43.37-.19.66-.4-.25.19-.2.33-.66.4Z"/>
    <path class="cls-4" d="M32.15,10.31c-.25-.82-.4-.03-.72,0-.29.04-.97.11-.87-.27h-.13c-.03.08-.24.51-.27.53-.33.22-.18-.32-.39-.26v5.56h2.25c.02-.29.12-.56.14-.86.11-1.52-.16-3.09,0-4.57.22.14.13.5.13.73.02,1.33.15,3.26,0,4.51-.02.13-.06.46-.21.46h-2.25s-.2-.18-.33-.13v-7.35c0-.3-.79-1.15-1.15-1.23-3.06-.7-2.4,3.18-2.42,5l-.26.66c-.03-.53.14-1.94-.36-2.26-.38-.24-.83.31-1.03-.39-.06.57-.21.39-.73.4l-.26,4.9c-.22-.14-.13-.5-.13-.73-.02-1.79.15-3.64.08-5.41-.03-.95-.34-2.04-1.37-2.31-.82-.22-2.28.95-2.28,1.76v6.88s-.18.2-.2.2h-2.38s-.2-.18-.2-.2V5.21s.18-.2.2-.2h2.25s.2.17.33.13c.12.16-.5.86-.07.79.15-.15.99-.85,1.12-.88.3-.07.49.09.72.07.46-.04,1.45-.29,1.83-.23.63.1,1.49,1.01,1.95,1.43.32-.8,1.41-1.42,2.23-1.52,3.47-.41,5.06,2.47,4.79,5.49v.02ZM19.31,9.51c.1-.19-.08-.35-.13-.26-.1.19.08.35.13.26ZM17.06,9.78v6.09h2.25c-.22-1.04.31-5.57-.12-6.14-.29-.39-.6.21-.73.19-.24-.03-.5-.29-.66-.28-.14,0-.07.4-.4.41-.12,0,.03-.41-.33-.27h-.01ZM29.9,10.04c.1-.19-.08-.35-.13-.26-.1.19.08.35.13.26Z"/>
    <path class="cls-4" d="M15.6,13.88c-.4.27-.19.07-.3-.16-.31-.64-.67-1.39-1.03-2-.08-.14-.47-.45-.52-.51-.06-.08.15-.35.12-.38-.05-.05-1.15-.45-1.33-.4l.13.26-.58.13c-.38-.14-.02-.59-.08-.66-.02-.02-.39.09-.61.03-.24-.08-.18-.42-.58-.29l.26.26c-.54.05-1.69.39-2.16.27-.1-.03-.09-.26-.16-.27-.57-.03-1.98.45-2.48.14-.1-.06-.13-.26-.23-.33-.08-.04-.74-.31-.86-.34-.07-.02-.04.24-.15.26-.66.17-.62-.1-.58-.66-.78.99-.84.25-.93-.66-.16-.17-.61.54-.66.66L6.73.34c.55-.46.6-.19,1.13-.21.46-.02,1-.21,1.4-.09.47.14.85,1.23,1.08,1.71,1.86,3.92,3.58,8.13,5.27,12.13h0ZM10.71,9.65l-2.45-5.69c-.52.29-.38.75-.56,1.15-.25.57-2.06,4.3-1.88,4.53,1.6.22,3.29.2,4.9,0h-.01ZM4.16,7.26v.13c.09-.04.09-.09,0-.13ZM4.09,7.53c-.35-.07-.23.08-.33.26-.58,1.02.5.39.33-.26Z"/>
    <path class="cls-3" d="M2.9,9.25c.05-.12.5-.83.66-.66.08.91.15,1.65.93.66-.04.57-.09.83.58.66.11-.03.08-.29.15-.26.12.04.78.3.86.34.1.06.13.26.23.33.5.31,1.91-.17,2.48-.14.08,0,.06.24.16.27.47.12,1.62-.22,2.16-.27l-.26-.26c.4-.13.35.21.58.29.22.07.59-.05.61-.03.06.07-.3.52.08.66l.58-.13-.13-.26c.18-.06,1.28.35,1.33.4.03.03-.19.3-.12.38.05.06.43.37.52.51.36.6.72,1.36,1.03,2,.11.23-.1.43.3.16.13.3,1.17,2.25.6,2.25h-2.12c-.14,0-.6-.2-.72-.34-.46-.53-.96-2.65-1.4-3.36l-.39-.14-7,.03c-.18.06-.21.23-.29.37-.36.61-1.1,2.98-1.42,3.28s-2.36.2-2.87.02c-.23-.34,1.93-4.58,2.24-5.28.52-.3.37-.69.53-1.06.05-.11.07-.25.13-.4l-.02-.02ZM3.49,9.51v.13c.09-.04.09-.09,0-.13Z"/>
    <path class="cls-4" d="M44.33,11.37c.19-.36.2-.53.54-.85,1.4-1.31,4.28-1.37,6.08-1.14.1-.89-.32-1.49-1.07-1.91-1.12-.63-2.03-.62-3.17-.01-.42.23-.54.48-.86.74-.13.11-.31-.09-.39.26-.92-.76-2.01-1.08-.87-2.32s3.55-1.61,5.11-1.4c.25.03.18.23.22.25s.62.03.76.09c1.27.49,2.91,2.14,2.91,3.58v7.48h-2.32c-.45,0-.22-1.14-.46-1.32.07-.1.03-.18.26-.13.19.21.07,1.19.13,1.19h2.25v-3.64s-.11-.24-.14-.39c-.08-.57.29-.84-.52-.73l.13-.46c-.36-.31-.21.28-.39.41-.11.08-.33-.07-.45-.03-.64.19-.37.42-.56.74-.06.11-.26.11-.37.31-.31.54-.02,1.34-1.02,1.29.22-.27,1.03-1.74.79-1.99-1.42.15-4.67-.43-4.24,1.85-.02-.02-.33.09-.27-.19-.11-.58.22-.99.27-1.53-.72.12-1.19-.18-1.06-.93-.39-.12-.61.61-.68.65-.08.05-.23-.1-.32-.11-.07,0-.08.33-.33.25h.04ZM46.64,11.23v.13c.09-.04.09-.09,0-.13Z"/>
    <path class="cls-4" d="M70.01,13.22c-1.79-3.24.19-7.55,3.69-8.39,3.14-.76,6.82,1.48,7.16,4.89.03.27.08,1.65-.2,1.65h-8.54c.09.87.92,1.86,1.72,2.18.42.17.82.14,1.19.33-.03,0-.23.15-.57.12-.21-.02-1.13-.31-1.24-.43-.09-.09-.08-.35-.23-.5-.55-.54-1.13-.55-1-1.51.03-.2.27-.55.25-.59-.28-.49-2.09-.16-2.23-.63-.06-.21.32-.66-.08-.84-.24-.11-.3.33-.32.47-.16,1.23.21,2.07.38,3.23l.02.02ZM78.08,9.38c-.86-3.06-5.12-3.17-5.96,0h5.96ZM72.39,11.1h8.07c.1-1.42-1.05-.89-1.87-1.12-.26-.07-.25-.34-.33-.35-.3-.03-.81.39-1.22.29-.32,1.08-.3.14-.86.16-.68.02-.42.38-.5.46-.03.03-.79.15-.86.15-.27-.02-.34-.31-.53-.35-.16-.04-.47.18-.65-.03-.15.03.13.34.07.39-.18.15-1.48-.59-1.32.4Z"/>
    <path class="cls-3" d="M44.33,11.37c.25.08.26-.25.33-.25.08,0,.24.16.32.11.07-.04.28-.78.68-.65-.13.75.34,1.05,1.06.93-.06.54-.39.95-.27,1.53-.05.28.25.17.27.19.92.92,1.64,1.08,2.91.53.18-.08.26-.13.4-.26.04-.04.1-.09.13-.13.99.05.71-.75,1.02-1.29.11-.2.3-.2.37-.31.19-.32-.08-.55.56-.74.12-.04.33.11.45.03.18-.13.03-.72.39-.41l-.13.46c.81-.1.44.17.52.73.02.16.14.36.14.39v3.64h-2.25c-.06,0,.05-.98-.13-1.19-.23-.05-.19.03-.26.13-1.98,2.96-7.77,1.32-6.75-2.91.23.01.31.05.26-.2l-.13-.07c.05-.14.08-.17.13-.26h-.02ZM51.94,11.37v.13c.09-.04.09-.09,0-.13ZM52.07,11.9v.13c.09-.04.09-.09,0-.13Z"/>
    <path class="cls-4" d="M68.55.12v16.02h-2.45s-.2-.18-.2-.2V.31s.18-.2.2-.2h2.45ZM66.23,15.87c.47.15,1.62-.11,2.18,0v-5.76s-.22-.25-.33-.2c-.28.67-.5,0-.54,0-.29-.03-.97.29-1.38.14l-.11,5.61c.02.08.11.2.18.22h0Z"/>
    <path class="cls-4" d="M56.5,15.07c-1.8-1.3-2.53-3.72-2.09-5.86.27-1.31,1.47-3.04,2.66-3.7,1.99-1.1,4.46-1.12,6.38.29.35.26,1.7,1.55,1.39,1.98-.36-.27-.24.11-.53.33-.17.13-1.25.75-1.37.72-1.24-2.16-4.34-2.37-5.53-.08-.48.92-.34,1.37-.37,2.34-.46.06-.05-.47-.4-.74-.1-.08-1.66-.23-1.92-.32-.05,0-.21.76-.21.87,0,.09.26,1.6.28,1.68.13.45.84,1.19,1.18,1.62.18.23.28.64.53.86h0Z"/>
    <path class="cls-3" d="M56.5,15.07c-.26-.22-.35-.63-.53-.86-.34-.43-1.05-1.17-1.18-1.62-.02-.08-.28-1.59-.28-1.68,0-.12.16-.88.21-.87.26.1,1.81.24,1.92.32.35.27-.06.8.4.74v.26c0,.05-.39.32.13.26v.13c.02.47-.18.76.4.66.05.08.08.19.13.26.3.43.36.44.79.66,1.1.56,2.55.61,3.56-.21.39-.31.72-1.21,1.11-1.1.25.07,1.42,1.2,1.8,1.37-1.4,2.41-3.89,3.32-6.58,2.62-.52-.13-1.49-.63-1.88-.96v.02Z"/>
    <path class="cls-4" d="M39.69,16.13h-2.58s-.2-.18-.2-.2V5.01h2.78s-.04.91,0,1.06c.92-1.16,1.48-1.05,2.85-1.06.15,0,.42-.14.44-.12s.28.42.28.45v2.38c0,.41-1.01-.16-1.27-.19-.6-.07-1.28.23-1.69.67-.14.15-.61.96-.61,1.11,0,0,0,6.82,0,6.82ZM37.05,10.64c-.16,1.46,0,3.5,0,5.03,0,.01.18.2.2.2h2.12c.07,0,.21-.22.21-.33l-.14-5.36c-.27.08-.71.26-.97.22-.36-.05-.47-.45-.5-.46s-.65.09-.69.1c-.06.02-.21.52-.22.6h0Z"/>
    <path class="cls-3" d="M70.01,13.22c-.18-1.16-.55-2.01-.38-3.23.02-.14.08-.58.32-.47.4.18.02.64.08.84.14.47,1.95.14,2.23.63.02.04-.22.39-.25.59-.14.96.45.96,1,1.51.15.15.14.4.23.5.11.12,1.03.41,1.24.43.34.03.54-.12.57-.12h.26s.01.15.32.14c.42-.01,1.33-.35,1.66-.61.2-.16.29-.46.4-.53.47-.31,1.37.9,1.86.74.03.25,0,.39-.13.6-.08.14-.95.82-1.15.96-.25.17-.64.03-.7.56-2.92,1.3-6.02.23-7.54-2.51l-.02-.03Z"/>
    <path class="cls-4" d="M35.86,5.01v11.12h-2.45s-.2-.18-.2-.2V5.15l2.65-.13h0ZM33.47,15.87h2.25c-.28-1.2.38-5.14-.13-5.99-.1-.17-1.58-.63-1.77-.6-.38.07-.46,1.14-.48,1.49-.04.61-.08,4.96.14,5.1h0Z"/>
    <path class="cls-3" d="M32.15,10.31v.13c-.15,1.48.12,3.05,0,4.57-.02.3-.12.56-.14.86h-2.25v-5.56c.22-.06.06.48.39.26.02-.02.24-.45.27-.53h.13c-.1.38.58.31.87.27.32-.04.47-.83.72,0h0Z"/>
    <path class="cls-3" d="M23.28,15.74l.26-4.9c.52,0,.67.17.73-.4.2.7.66.15,1.03.39.5.32.33,1.73.36,2.26l.26-.66c0,.72.14,3.01-.02,3.49-.11.33-.63.2-.91.22-.46-.34-1.2.06-1.72-.26-.01-.04,0-.09,0-.13h0Z"/>
    <path class="cls-1" d="M54.12,23.81l-1.85-1.72v2.25c-.33-.01-1.06.15-1.06-.33v-3.97s.12-.18.27-.14c.58.14,1.85,1.98,2.51,2.32v-2.05c0-.27.76-.46.93-.11-.09,1.45.33,2.84,0,4.28-.3.03-.51-.18-.66-.4l.53.06v-2.31c-.58-.21-.47.62-.69.77-.14.09-.5-.03-.63.23-.05.22.47.54.59.73.09.14.05.36.07.39h0ZM51.47,22.22v1.85c.22.01.59.04.65-.21.02-.08-.19-1.59-.25-1.64-.03-.03-.29.02-.4,0Z"/>
    <path class="cls-1" d="M22.88,23.41c-.09-.27-.2-.73-.53-.66.49-1.43-.54-2.04-1.85-1.85-.33.3,0,2.13-.13,2.25-.05.05-.5-.07-.65.02s-.09.82,0,.9c.08.07,1.82.04,2.1.01-.33.22-2.19.2-2.32,0-.14-.49.02-4.06.2-4.19,1.86-.26,4.02.39,3.7,2.64-.09.6-.23.54-.52.87h0Z"/>
    <path class="cls-1" d="M26.86,20.1l.07-.12c1.11-.1,2.12-.23,3.24-.01.06.06-.09.93-.13.93h-2.25v.79h1.72c.15.83-.21,1.04-.99,1.06-.24,0-.51-.17-.73-.13-.23.04-.11.47-.13.66-.25.05-.04-.25-.2-.27s.05.33-.2.27c-.55-.99-.03-2.14-.4-3.18Z"/>
    <path class="cls-1" d="M60.61,23.28c-.14-1.19-2.21-.42-2.38-1.8-.22-1.75,2.19-2.01,3.17-1.04-.19,1.02-.98.38-1.66.45-.96.1-.07.92.03.94.18.03.4-.1.59-.07,1.8.36,1.6,2.41-.15,2.58l-.2-.26c.84.11,1.87-.9.92-1.46l-.07.79c-.12.05-.25-.13-.26-.13h.01ZM60.74,22.62c.29-.32-.46-.7-.79-.53-.15.32.76.56.79.53Z"/>
    <path class="cls-5" d="M34.4,21.43c.69.6,1.61.06,2.18.93,1.19,1.84-2.33,2.68-3.23,1.1.26-1.25,1.9.54,2.35-.2.42-.68-.82-.66-1.17-.78.6-.32-.02-.23,0-.33.57-.65-.06-.37-.13-.73h0Z"/>
    <path class="cls-1" d="M47.11,23.15c.12-.81-.25-.51-.79-.4-.54-1.39.74-.73,1.58-1.06.19.87.41,1.84-.48,2.36-2.02,1.17-4.45-1.45-2.96-3.35.65-.83,2.22-1.04,3.09-.44.7.48.03.53-.05,1.17-.37-.03-.34-.36-.79-.46-.61-.14-1.04-.12-1.5.33-.17.16.03.49-.35.4,0-.17.25-.81-.13-.93-.51.53-.5,2.27,0,2.71.63.55,2.56,1,2.88-.02.04-.11.19-1.17.16-1.22-.07-.1-.86-.17-1.06-.14-.11.49.39.12.54.34.07.1.16.65.12.72-.02.03-.21-.03-.26,0h0Z"/>
    <path class="cls-1" d="M34.4,21.43c.08.36.7.08.13.73-.02.1.6.01,0,.33-.66-.23-1.32-.7-1.17-1.49.31-1.63,3.16-1.05,3.16-.43,0,.17-.34.55-.49.58-.28.05-.6-.56-1.28-.35-.26.08-.41.38-.36.64h0Z"/>
    <path class="cls-5" d="M26.86,20.1c.37,1.03-.15,2.19.4,3.18.24.06.05-.28.2-.27s-.05.32.2.27c.03-.19-.1-.62.13-.66v.79c.94.07,2.68-.79,2.38.79h-3.31v-4.1Z"/>
    <path class="cls-5" d="M44.86,21.69c.03.39.02.53.13.93.06.21-.02.29.19.54.36.43,1.53.74,1.91.37.06-.06,0-.2.02-.25.02-.04-.02-.12,0-.13.05-.03.24.03.26,0,.05-.06-.05-.62-.12-.72-.16-.23-.65.15-.54-.34.19-.03.98.04,1.06.14.04.05-.12,1.11-.16,1.22-.31,1.03-2.25.57-2.88.02-.5-.44-.52-2.17,0-2.71.38.12.12.76.13.93Z"/>
    <path class="cls-5" d="M20.5,20.9v2.52c.68-.1,1.62.03,1.85-.66.33-.06.44.39.53.66-.1.12-.13.16-.26.26-.29.21-.77-.03-.66.4h-.13c-.28.03-2.03.06-2.1-.01-.09-.08-.14-.81,0-.9s.59.04.65-.02c.13-.12-.2-1.95.13-2.25h-.01Z"/>
    <path class="cls-5" d="M60.61,23.28s.14.18.26.13l.07-.79c.94.56-.08,1.56-.92,1.46l.2.26c-.5.05-2.14-.34-1.97-.97.04-.16.4-.49.58-.49.24,0,.47.43.82.51.48.11.67-.09.96-.11Z"/>
    <path class="cls-1" d="M40.75,19.97c.08,1.34-.17,2.8.13,4.1-.04.13-.06.12-.19.14-.86.12-.93-.14-.87-.93,0-.03.13-.15.14-.32.04-.99-.04-2,0-2.99.23.04.61-.06.79,0ZM40.62,21.82c-.11.02-.36-.03-.39,0-.13.1-.29,2.18.07,2.25.13.03.33-.15.33-.2v-2.05h-.01Z"/>
    <path class="cls-5" d="M54.12,23.81s.03-.24-.07-.39c-.13-.19-.64-.52-.59-.73.14-.26.49-.14.63-.23.22-.15.11-.97.69-.77v2.31l-.53-.06s-.1-.08-.13-.13Z"/>
    <path class="cls-4" d="M77.55,15.74c.06-.52.45-.39.7-.56.2-.14,1.07-.82,1.15-.96.12-.21.16-.35.13-.6-.49.17-1.38-1.04-1.86-.74-.11.07-.2.38-.4.53-.33.26-1.24.59-1.66.61-.31,0-.31-.14-.32-.14,1.16-.15,1.72-.78,2.58-1.46.32.23,2,1.02,2.05,1.27-.55.82-1.45,1.62-2.38,2.04h.01Z"/>
    <path class="cls-1" d="M47.11,23.28s.05.19-.02.25c-.39.37-1.56.06-1.91-.37-.21-.25-.13-.32-.19-.54.66.6,1.19.99,2.12.66Z"/>
    <path class="cls-5" d="M40.89,24.07c-.3-1.3-.05-2.76-.13-4.1.13.04.12.06.14.19.05.4.07,3.7,0,3.91h0Z"/>
    <path class="cls-5" d="M39.83,23.28c.08-1.07-.17-2.28.13-3.31-.03.99.04,2,0,2.99,0,.17-.14.29-.14.32h0Z"/>
    <path class="cls-2" d="M25,16.13c-.39.02-1.59.15-1.72-.26.52.33,1.26-.07,1.72.26Z"/>
    <path class="cls-4" d="M2.77,9.65c-.16.37,0,.76-.53,1.06.15-.34.18-.87.53-1.06Z"/>
    <path class="cls-4" d="M57.56,12.43c-.58.1-.38-.19-.4-.66.22.17.27.44.4.66Z"/>
    <path class="cls-4" d="M57.17,11.63c-.53.05-.14-.21-.13-.26.13.04.12.15.13.26Z"/>
    <path class="cls-4" d="M44.2,11.63l.13.07c.05.24-.04.21-.26.2.03-.13.11-.19.13-.26h0Z"/>
    <path class="cls-4" d="M58.49,13.35c-.43-.22-.5-.23-.79-.66l.79.66Z"/>
    <path class="cls-3" d="M17.06,9.78c.36-.14.21.27.33.27.34-.01.26-.4.4-.41.16-.01.43.25.66.28.13.01.44-.58.73-.19.42.57-.1,5.11.12,6.14h-2.25v-6.09h.01Z"/>
    <path class="cls-3" d="M19.31,9.51c-.05.09-.22-.08-.13-.26.05-.09.22.08.13.26Z"/>
    <path class="cls-3" d="M29.9,10.04c-.05.09-.22-.08-.13-.26.05-.09.22.08.13.26Z"/>
    <path class="cls-3" d="M4.09,7.53c.17.65-.91,1.28-.33.26.1-.18-.02-.33.33-.26Z"/>
    <path class="cls-3" d="M4.16,7.26c.09.04.09.09,0,.13v-.13Z"/>
    <path class="cls-4" d="M3.49,9.51c.09.04.09.09,0,.13v-.13Z"/>
    <path class="cls-3" d="M46.64,11.23c.09.04.09.09,0,.13v-.13Z"/>
    <path class="cls-3" d="M72.39,11.1c-.16-.99,1.14-.25,1.32-.4.07-.06-.22-.37-.07-.39.18.21.49,0,.65.03.19.05.26.34.53.35.07,0,.83-.12.86-.15.08-.08-.18-.44.5-.46.56-.01.53.92.86-.16.41.1.92-.32,1.22-.29.09,0,.07.27.33.35.82.23,1.97-.31,1.87,1.12,0,0-8.07,0-8.07,0ZM76.03,10.44v.13c.09-.04.09-.09,0-.13ZM74.31,10.71v.13c.09-.04.09-.09,0-.13Z"/>
    <path class="cls-4" d="M50.02,13.48c-.14.13-.22.19-.4.26.06-.19.2-.26.4-.26Z"/>
    <path class="cls-4" d="M52.07,11.9c.09.04.09.09,0,.13v-.13Z"/>
    <path class="cls-4" d="M51.94,11.37c.09.04.09.09,0,.13v-.13Z"/>
    <path class="cls-3" d="M66.23,15.87c-.07-.02-.15-.14-.18-.22l.11-5.61c.41.15,1.09-.17,1.38-.14.04,0,.26.68.54,0,.11-.04.33.16.33.2v5.76c-.56-.11-1.71.15-2.18,0h0Z"/>
    <path class="cls-3" d="M37.05,10.64c0-.08.16-.58.22-.6.04-.01.66-.11.69-.1s.14.42.5.46c.26.03.71-.14.97-.22l.14,5.36c0,.11-.13.33-.21.33h-2.12s-.2-.18-.2-.2c0-1.53-.16-3.57,0-5.03h0Z"/>
    <path class="cls-3" d="M33.47,15.87c-.22-.14-.18-4.49-.14-5.1.03-.35.11-1.42.48-1.49.2-.04,1.67.43,1.77.6.51.85-.15,4.79.13,5.99h-2.25,0Z"/>
    <path class="cls-5" d="M51.47,22.22c.11.02.37-.03.4,0,.06.06.27,1.56.25,1.64-.06.25-.43.22-.65.21,0,0,0-1.85,0-1.85Z"/>
    <path class="cls-5" d="M60.74,22.62s-.94-.2-.79-.53c.34-.17,1.08.21.79.53Z"/>
    <path class="cls-5" d="M40.62,21.82v2.05s-.2.22-.33.2c-.36-.07-.19-2.15-.07-2.25.04-.03.29.02.39,0h.01Z"/>
    <path class="cls-4" d="M74.31,10.71c.09.04.09.09,0,.13v-.13Z"/>
    <path class="cls-4" d="M76.03,10.44c.09.04.09.09,0,.13v-.13Z"/>
    <line class="cls-7" x1="16.89" y1="23.03" x2="9.69" y2="23.03"/>
    <line class="cls-7" x1="71.85" y1="23.03" x2="64.65" y2="23.03"/>
    <g>
      <path class="cls-6" d="M31.77,34.39h0v-.02c0-.12.07-.22.15-.3h.03c.11,0,.2.02.29.08.07.05.14.1.23.11,0,.03,0,.04.03.04h0s.05.03.08.04h0s0,.04.04.03h.03s.02.03.05.03h0c.12.09.25.15.39.19h0s.02.04.04.03h.03s.05.04.08.03h.03s.02.04.05.03c.44.18.91.27,1.38.3h.26c.14.09.3.03.45.04.1,0,.2,0,.29.02.13.04.25,0,.38,0,.07,0,.15,0,.22,0,0,0,.03.03.04.03.47.03.92.15,1.36.3.76.27,1.46.62,2.03,1.2.47.47.86.98,1.14,1.58.02.04.02.13.11.09.06-.02.02-.09.03-.13v-3.94c.05-.44.12-.87.25-1.29.24-.75.7-1.31,1.34-1.74.53-.35,1.11-.57,1.74-.68h.17c.14.02.25.1.25.25,0,.16-.1.25-.25.27-.44.07-.86.19-1.25.41-.02,0-.05.01-.07.02-.67.37-1.11.93-1.39,1.63-.1.26-.19.53-.18.81v.04c-.06.46-.06.93-.02,1.39.04.56-.03,1.11-.02,1.67,0,.14.03.28.03.42v.74s0,.07.04.07c.03,0,.06,0,.07-.04.03-.07.07-.14.11-.21.96-1.64,2.43-2.42,4.29-2.55.64-.04,1.27-.06,1.9-.19.8-.17,1.52-.5,2.16-1.01h.03s.03,0,.04-.03h0c.29-.16.43-.14.51.09.06.16-.04.25-.14.33-.75.6-1.6,1.02-2.54,1.21-.35.07-.7.1-1.06.13-.75.05-1.51.05-2.23.29-.79.26-1.48.68-2,1.34-.59.76-.93,1.62-.92,2.6,0,1.96,0,3.91,0,5.87,0,.11-.07.21-.03.33.02.06-.06.11-.13.11h-.84c-.15,0-.16-.11-.16-.23v-3.81c0-.79.02-1.58,0-2.37-.03-.77-.22-1.49-.63-2.16-.35-.56-.77-1.02-1.31-1.39-.34-.23-.71-.43-1.11-.55-.06-.04-.12-.07-.2-.07h0c-.38-.16-.78-.23-1.2-.26-.02,0-.05,0-.07,0-.03-.03-.07-.03-.1-.03-.46,0-.92-.06-1.38-.04h-.13c-.43-.09-.86-.13-1.27-.29-.04,0-.09,0-.13,0-.07-.12-.19-.13-.31-.14-.04-.02-.07-.03-.11-.05,0-.04-.05-.03-.07-.04-.04-.03-.07-.06-.11-.09-.06-.04-.12-.09-.19-.09h0s0-.04-.04-.03c0,0-.02,0-.04,0-.04-.05-.1-.07-.15-.09,0,0-.02,0-.03,0-.06-.04-.11-.1-.19-.11-.01,0-.03-.02-.04-.04-.01,0-.03-.02-.04-.03-.04-.06-.07-.11-.11-.17v.04Z"/>
      <path class="cls-6" d="M31.63,37.94c0-.16.07-.26.24-.27.15,0,.25.09.3.31.02.1.03.21.05.31.16,1.1.51,2.13,1.06,3.11.37.65.81,1.24,1.31,1.78.63.68,1.36,1.23,2.18,1.67.72.38,1.47.66,2.26.87.24.06.48.11.72.17.21.05.34.21.29.37-.06.21-.24.28-.47.19-.04-.02-.07-.04-.11-.05-.41-.09-.82-.17-1.22-.3-.45-.15-.88-.33-1.3-.54-.72-.36-1.4-.8-2.03-1.31-.33-.27-.66-.55-.93-.86-.37-.43-.72-.9-1.03-1.39-.45-.72-.77-1.49-1.01-2.29-.16-.54-.27-1.1-.3-1.76h-.01Z"/>
      <path class="cls-6" d="M43.05,46.45h-.03c-.06,0-.14-.04-.19.03h-.07s0-.04-.04-.03h-.03s-.08-.07-.11-.11c0,0,0-.02,0-.03-.03-.11.04-.2.04-.3.06-.1.17-.11.27-.12.05,0,.11.03.15-.03h.07s.09.03.11-.03h.07s.06,0,.08-.03h.07s.06,0,.08-.03c.06,0,.12-.03.18-.04.04,0,.09.02.12-.03h.03s.06.02.08-.03h.07s.06,0,.08-.03h.07s.06,0,.07-.03h.04s.04,0,.04-.03h.03s.06,0,.08-.03c.09-.05.2-.05.29-.08.02,0,.04,0,.05-.03h.03c.06,0,.12-.02.16-.07h.03s.04,0,.05-.03h.02s.06,0,.07-.03h0c.1-.03.19-.07.26-.15h0c.07,0,.14-.02.18-.08h0s.06,0,.07-.04h0s.06-.03.06-.07c.62-.27,1.17-.65,1.68-1.09.87-.75,1.55-1.64,2.09-2.65.18-.33.32-.69.45-1.04.27-.69.41-1.41.51-2.14.03-.21.12-.29.3-.27.17.02.25.11.23.32-.05.64-.19,1.26-.37,1.87-.13.43-.32.84-.49,1.26,0,0-.02.03-.03.04,0,0,0,.02,0,.04-.03,0-.04.04-.04.08h0s-.04.04-.04.07c-.31.59-.68,1.13-1.09,1.66-.3.39-.66.74-1.03,1.08-.49.46-1.03.86-1.61,1.2-.46.27-.95.48-1.46.67-.34.12-.69.2-1.02.33-.21.08-.45.09-.68.13-.03,0-.04,0-.04.03l.03-.11Z"/>
      <path class="cls-6" d="M37.81,36.86c-.32.2-.54.45-.76.7-.43.46-.97.51-1.55.4-.05,0-.11-.03-.07-.12.23-.53.57-.93,1.15-1.08.41-.11.81-.07,1.24.1h-.01Z"/>
      <path class="cls-6" d="M45,37.07c.99-.33,1.8-.03,2.22.92.06.14.02.18-.11.2-.69.13-1.25-.09-1.69-.63-.13-.17-.28-.32-.43-.49h0Z"/>
      <path class="cls-6" d="M34.17,38.85c.04.33.21.52.55.53-.15.05-.27.08-.38.16-.12.09-.11.24-.2.42,0-.4-.24-.5-.53-.56.32-.05.54-.19.56-.55Z"/>
      <path class="cls-6" d="M34.27,36.95c0,.16-.09.27-.23.27-.17,0-.26-.1-.26-.28,0-.14.12-.28.24-.28.13,0,.25.14.25.29Z"/>
      <path class="cls-6" d="M48.81,37.67c-.16,0-.25-.09-.25-.25,0-.14.12-.27.25-.27s.28.15.28.28-.13.25-.27.25h0Z"/>
      <path class="cls-6" d="M43.87,37.91c0-.15.1-.26.25-.25.15,0,.24.09.24.24,0,.16-.11.26-.29.26-.13,0-.21-.09-.21-.25h0Z"/>
      <path class="cls-6" d="M38.5,38c-.17,0-.25-.08-.23-.25,0-.15.08-.24.24-.24s.26.09.27.24c0,.13-.13.25-.28.25Z"/>
      <path class="cls-6" d="M31.87,34.56s.03.02.04.03c-.01,0-.03-.02-.04-.03Z"/>
      <path class="cls-6" d="M45.37,32.65c-.33.4-.71.75-1.16,1-1.02.57-1.55,1.5-1.94,2.55-.02.05-.03.09-.05.15-.09-.1-.06-.23-.1-.33,0-.07,0-.15,0-.22v-.34c0-.18.05-.36.12-.52.13-.24.25-.47.38-.71.12-.13.24-.25.36-.38.42-.3.84-.6,1.26-.91.16-.11.31-.23.44-.37.71-.78,1.11-1.67,1.1-2.74v-1.25c0-.2.1-.31.29-.31.16,0,.24.1.24.3,0,.55.02,1.11,0,1.66-.05.83-.34,1.58-.83,2.25-.04.05-.07.1-.1.15v.02Z"/>
      <path class="cls-6" d="M40.44,34.48c.06.36.08.72-.04,1.07,0,.02-.02.03-.04.08-.25-.9-.72-1.62-1.49-2.12h0s-.02-.02-.04-.03c-.02-.02-.05-.03-.07-.05,0-.02,0-.04-.04-.03h-.03s-.08-.05-.12-.08h0c-.06-.07-.14-.11-.22-.16h0s-.03-.02-.05-.03h0l-.04-.04h0s-.03-.02-.04-.03h0s-.03-.03-.05-.04h0c-.09-.07-.17-.15-.26-.22,0,0-.03-.02-.04-.04,0,0-.03-.02-.04-.04h0s-.03-.02-.04-.03c-.26-.28-.52-.56-.72-.89-.33-.55-.49-1.14-.51-1.77,0-.48-.02-.97-.02-1.45,0-.19.09-.3.24-.31.14-.01.26.09.28.28.02.18.02.37.02.56v.93c.03.56.22,1.08.51,1.55.33.53.8.93,1.31,1.27.64.43,1.23.9,1.54,1.63h.01Z"/>
      <path class="cls-6" d="M40.71,32.66c-.16-.48-.38-.89-.65-1.27-.24-.35-.55-.6-.9-.84-.3-.21-.63-.35-.98-.46-.11-.03-.17-.17-.16-.25.02-.12.09-.26.26-.26.24,0,.46.08.67.18.69.34,1.28.8,1.64,1.5.22.43.28.89.11,1.39h.01Z"/>
      <path class="cls-6" d="M41.32,31.83c-.31-.83-.24-1.61.18-2.37.23-.41.59-.72.83-1.11.08-.14.22-.15.35-.07.13.08.18.25.1.39-.13.22-.28.43-.45.62-.51.58-.73,1.3-.89,2.03-.04.17-.08.34-.12.51Z"/>
      <path class="cls-6" d="M39.95,26.44c.53.42,1.11.74,1.25,1.44.05.25,0,.51.02.76,0,.1-.07.08-.11.06-.39-.16-.75-.35-.97-.74-.1-.18-.15-.37-.17-.57-.03-.31,0-.62-.02-.97v.02Z"/>
      <path class="cls-6" d="M47.12,32.47c.02.32.03.63-.02.95-.07.42-.29.74-.64.98-.17.12-.36.22-.55.31-.07-.27-.05-.53-.05-.79.02-.07.04-.15.06-.22l.06-.21c.23-.51.66-.8,1.14-1.03h0Z"/>
      <path class="cls-6" d="M36.67,33.47c.13.35.1.72.06,1.08-.14,0-.24-.12-.37-.14-.18-.08-.33-.19-.47-.33h0l-.09-.09h0s-.08-.1-.11-.15h0s-.05-.09-.08-.13h0v-.02s0-.06-.03-.08v-.04s0-.05-.03-.06v-.05s0-.06-.02-.08h0c-.02-.34-.04-.69,0-1.03h.03s.06.08.12.08l.03.03s.02.04.04.03c.17.13.34.26.51.38l.05.05.1.1s.07.12.13.15h0s.03.03.04.05v.03s.02.03.03.04c.03.06.06.12.09.18h-.02Z"/>
      <path class="cls-6" d="M33.61,30.16c.5-.02.79-.26.84-.77.07.47.31.75.8.79-.47.07-.77.29-.77.78-.1-.03-.05-.11-.07-.16-.13-.34-.17-.48-.6-.54-.06,0-.13-.04-.2-.1Z"/>
      <path class="cls-6" d="M43.7,25.28c.09.53.15.59.69.74-.43.05-.66.28-.7.73-.02-.47-.29-.68-.72-.74.46-.04.66-.31.72-.73h.01Z"/>
      <path class="cls-6" d="M48.36,31.85c-.06.07-.03.18-.12.25-.03-.1-.06-.2-.08-.29-.09-.21-.31-.22-.5-.33.33-.07.59-.21.59-.62.05.39.23.61.63.61-.06.08-.12.08-.18.09s-.12.04-.17.07c-.06.03-.12.07-.13.14,0,.01-.02.03-.03.04,0,0,0,.02,0,.03h-.01Z"/>
      <path class="cls-6" d="M43.5,28.41c.24-.08.5-.12.51-.45.06.26.19.42.48.45-.27.05-.43.19-.47.47-.02-.33-.24-.42-.52-.47Z"/>
      <path class="cls-6" d="M38.57,28.07c0-.11.14-.24.27-.24.16,0,.28.12.28.25s-.14.26-.26.27c-.13,0-.29-.15-.29-.28Z"/>
      <path class="cls-6" d="M41.18,25.99c0-.16.1-.26.25-.25.14,0,.27.13.27.26s-.13.26-.27.26-.26-.11-.26-.26h0Z"/>
      <path class="cls-6" d="M47.85,29.02c0,.17-.07.23-.25.23-.14,0-.26-.12-.26-.26s.11-.25.24-.25c.17,0,.27.11.27.28Z"/>
      <path class="cls-6" d="M33.52,33.21c.18-.16.26-.16.45,0v.03s0,.05.03.06v.02s0,0,0,.02c-.02.11-.05.2-.17.25-.17.06-.26-.02-.33-.16v-.19h0s.02-.03.03-.05v.02Z"/>
      <path class="cls-6" d="M33.85,31.75c.13,0,.26.12.27.25,0,.13-.13.25-.27.25-.13,0-.24-.12-.24-.26,0-.15.09-.24.24-.24Z"/>
      <path class="cls-6" d="M35.5,28.56c0,.15-.1.25-.26.25-.17,0-.27-.1-.27-.26,0-.12.15-.24.28-.23.15,0,.24.1.24.24h0Z"/>
      <path class="cls-6" d="M45.23,27.38c-.14,0-.25-.1-.25-.24,0-.11.13-.26.24-.27.11,0,.26.14.27.27,0,.11-.13.24-.26.24Z"/>
      <path class="cls-6" d="M48.37,31.83s.02-.03.03-.04c0,.01-.02.03-.03.04Z"/>
      <path class="cls-6" d="M44.74,34.78c0,.14-.1.24-.26.25-.14,0-.26-.11-.27-.25,0-.14.11-.26.25-.26.15,0,.27.11.27.26h0Z"/>
      <path class="cls-6" d="M48.89,33.48c0,.16-.09.25-.25.26-.14,0-.27-.12-.28-.24,0-.14.12-.28.27-.28.14,0,.25.12.26.27h0Z"/>
      <path class="cls-6" d="M38.42,34.38c0,.16-.09.25-.25.26-.15,0-.27-.1-.28-.24,0-.15.11-.27.26-.27s.26.11.26.25h.01Z"/>
    </g>
  </g>
</svg>